<svg width="197" height="277" viewBox="0 0 197 277" fill="none" xmlns="http://www.w3.org/2000/svg">
<path d="M18.4062 214.668C15.4063 199.668 29.9065 80.1677 32.9065 60.6678C35.9065 41.1679 37.4065 23.168 56.9065 20.6678C68.8157 19.1408 81.6487 31.1883 91.6486 46.6884C101.648 62.1885 173.149 186.189 178.649 203.689C184.149 221.189 184.148 229.688 169.149 235.688C154.149 241.689 53.4065 245.168 43.9065 243.668C34.4065 242.168 21.4061 229.668 18.4062 214.668Z" fill="#FFD24B"/>
<path d="M48.0384 28.3504C46.6794 28.1413 45.3204 27.9323 43.9614 27.7232C42.5081 38.3333 42.0654 48.779 41.4245 59.2808C39.2516 107.295 36.4492 154.117 38.9445 203.348C39.966 208.487 40.9994 213.7 43.5137 219.065C45.6988 224.48 52.1427 229.791 58.3134 230.385C101.681 231.864 139.776 235.897 185.975 225.787C193.068 221.742 197.337 211.055 196.236 203.567C195.661 195.819 193.619 189.117 191.596 182.436C178.279 149.683 161.551 121.014 145.476 91.0197C134.285 70.7478 123.125 50.7203 110.563 30.9153C101.608 17.3973 88.4398 -1.07812 68 0.0493424C66.0166 0.111862 63.9974 0.29373 61.945 0.727893C55.9706 1.71754 50.2821 6.42127 47.9845 11.7182C45.4806 16.9783 44.5835 22.391 43.9614 27.7232C45.3204 27.9323 46.6794 28.1413 48.0384 28.3504C49.9395 18.4585 53.9218 7.81129 63.1183 7.22277C64.6738 7.00713 66.3122 6.96399 68 7.02488C83.9906 7.15516 93.757 21.954 102.436 36.1584C113.727 55.5832 124.74 76.2049 135.831 96.3078C151.702 125.803 169.118 156.061 181.404 185.638C185.197 198.168 189.55 211.927 180.025 217.287C145.288 223.878 98.8871 222.869 59.6866 221.689C51.719 221.275 49.1355 211.407 47.0554 201.726C44.0234 155.806 45.5064 106.948 46.4312 59.4914C46.7765 49.0779 46.9619 38.3815 48.0384 28.3504ZM43.9614 27.7232L48.0384 28.3504L43.9614 27.7232Z" fill="black"/>
<path d="M0.0237696 102.193C-1.17001 97.0684 43 44.5371 43 44.5371L39.4186 126.537C39.4186 126.537 1.21755 107.318 0.0237696 102.193Z" fill="black"/>
<path d="M105.61 117.298C97.5767 99.8401 83.6852 101.59 74.1859 109.242C64.6866 116.895 63.2793 127.492 68.3138 137.218C73.3483 146.945 84.1723 150.971 91.4044 148.481C98.6365 145.99 114.983 137.665 105.61 117.298Z" fill="black"/>
<path d="M95.2759 99.1442C89.0823 97.4051 82.8047 99.1537 78.4211 102.13C76.1844 103.62 74.281 105.416 72.6866 107.381C70.6441 108.8 68.7322 110.481 67.0759 112.477C60.8534 119.465 60.2145 130.932 64.3737 139.258C69.0296 149.156 80.0246 157.255 93.2421 153.817C100.379 151.498 107.912 147.388 112.196 139.21C116.514 130.869 114.561 121.39 111.394 114.636C110.681 113.078 109.907 111.595 108.974 110.08C106.151 105.45 101.481 100.823 95.2759 99.1442ZM75.6854 111.104C77.6636 110.192 79.6615 109.505 81.5966 109.089C89.77 107.397 94.2136 110.525 98.1274 116.779C98.7453 117.781 99.2964 118.82 99.8268 119.959C105.19 130.469 100.872 138.791 89.5669 143.144C84.6006 145.247 75.8723 141.612 72.2547 135.179C68.6238 129.298 67.9421 121.998 71.7731 115.892C72.818 114.173 74.1466 112.57 75.6854 111.104Z" fill="black"/>
<path d="M129 229.537C129.07 228.211 128.604 226.939 127.665 226.002C126.728 225.064 125.396 224.537 124 224.537C122.604 224.537 121.272 225.064 120.335 226.002C119.396 226.939 118.93 228.211 119 229.537C119.052 230.544 119.104 231.551 119.156 232.558C119.777 244.566 120.399 256.575 121.02 268.583L123.449 265.654C117.497 267.097 111.545 268.539 105.593 269.982C104.613 270.219 103.633 270.457 102.653 270.694C102.194 270.806 101.789 271.105 101.526 271.512C101.263 271.92 101.163 272.402 101.25 272.867C101.338 273.331 101.606 273.744 102 274.028C102.393 274.311 102.878 274.443 103.347 274.38C103.347 274.38 103.347 274.38 103.347 274.38C104.346 274.245 105.345 274.109 106.344 273.974C112.413 273.154 118.482 272.333 124.551 271.512L127.1 270.894L126.98 268.583C127.601 256.575 128.223 244.566 128.844 232.558C128.896 231.551 128.948 230.544 129 229.537Z" fill="black"/>
<path d="M80 231.537C80.0695 230.211 79.6037 228.939 78.6648 228.002C77.7283 227.064 76.3956 226.537 75 226.537C73.6044 226.537 72.2717 227.064 71.3352 228.002C70.3963 228.939 69.9305 230.211 70 231.537C70.0521 232.544 70.1042 233.551 70.1562 234.558C70.7774 246.566 71.3985 258.575 72.0197 270.583L74.4485 267.654C68.4966 269.097 62.5447 270.539 56.5927 271.982C55.6128 272.219 54.633 272.457 53.6531 272.694C53.1936 272.806 52.7891 273.105 52.5259 273.512C52.2629 273.92 52.1628 274.402 52.2502 274.867C52.3377 275.331 52.6062 275.744 52.9995 276.028C53.3927 276.311 53.8783 276.443 54.3469 276.38C54.3469 276.38 54.3469 276.38 54.3469 276.38C55.3461 276.245 56.3453 276.109 57.3444 275.974C63.4134 275.154 69.4825 274.333 75.5515 273.512L78.0999 272.894L77.9803 270.583C78.6015 258.575 79.2226 246.566 79.8437 234.558C79.8958 233.551 79.9479 232.544 80 231.537Z" fill="black"/>
</svg>
